<?xml version="1.0"?>
<svg xmlns="http://www.w3.org/2000/svg" xmlns:xlink="http://www.w3.org/1999/xlink" xmlns:svgjs="http://svgjs.com/svgjs" version="1.1" width="512" height="512" x="0" y="0" viewBox="0 0 511.99997 511" style="enable-background:new 0 0 512 512" xml:space="preserve"><g><path xmlns="http://www.w3.org/2000/svg" d="m496.640625.5h-481.28125c-8.480469 0-15.359375 6.878906-15.359375 15.359375v262.027344h512v-262.027344c0-8.480469-6.875-15.359375-15.359375-15.359375zm-304.125 187.523438c0 8.484374-6.878906 15.359374-15.363281 15.359374-8.480469 0-15.359375-6.875-15.359375-15.359374v-33.082032h-40.621094c-8.484375 0-15.359375-6.875-15.359375-15.359375v-46.730469c0-8.484374 6.875-15.359374 15.359375-15.359374 8.480469 0 15.359375 6.875 15.359375 15.359374v31.371094h25.261719v-31.371094c0-8.484374 6.878906-15.359374 15.359375-15.359374 8.484375 0 15.363281 6.875 15.363281 15.359374zm106.835937-27.992188c0 23.90625-19.449218 43.351562-43.351562 43.351562s-43.347656-19.445312-43.347656-43.351562v-39.1875c0-23.90625 19.445312-43.351562 43.347656-43.351562s43.351562 19.445312 43.351562 43.351562zm106.835938 27.992188c0 8.484374-6.875 15.359374-15.359375 15.359374-8.480469 0-15.359375-6.875-15.359375-15.359374v-33.082032h-40.621094c-8.484375 0-15.363281-6.875-15.363281-15.359375v-46.730469c0-8.484374 6.878906-15.359374 15.363281-15.359374 8.480469 0 15.359375 6.875 15.359375 15.359374v31.371094h25.261719v-31.371094c0-8.484374 6.878906-15.359374 15.359375-15.359374 8.484375 0 15.359375 6.875 15.359375 15.359374zm0 0" fill="#ffffff" data-original="#000000" style=""/><path xmlns="http://www.w3.org/2000/svg" d="m256 108.210938c-6.964844 0-12.632812 5.664062-12.632812 12.628906v39.191406c0 6.964844 5.667968 12.632812 12.632812 12.632812s12.632812-5.667968 12.632812-12.632812v-39.191406c0-6.964844-5.667968-12.628906-12.632812-12.628906zm0 0" fill="#ffffff" data-original="#000000" style=""/><path xmlns="http://www.w3.org/2000/svg" d="m0 308.605469v52.222656c0 8.484375 6.878906 15.359375 15.359375 15.359375h481.28125c8.480469 0 15.359375-6.875 15.359375-15.359375v-52.222656zm0 0" fill="#ffffff" data-original="#000000" style=""/><path xmlns="http://www.w3.org/2000/svg" d="m381.953125 406.910156h-251.90625c-8.484375 0-15.359375 6.875-15.359375 15.359375 0 8.480469 6.875 15.359375 15.359375 15.359375h251.90625c8.484375 0 15.359375-6.878906 15.359375-15.359375 0-8.484375-6.875-15.359375-15.359375-15.359375zm0 0" fill="#ffffff" data-original="#000000" style=""/></g></svg>
